<svg xmlns="http://www.w3.org/2000/svg" width="43" height="43" viewBox="0 0 43 43">
  <g id="icon_haende" transform="translate(-465 -1145)">
    <circle id="Ellipse_35" data-name="Ellipse 35" cx="21.5" cy="21.5" r="21.5" transform="translate(465 1145)" fill="#d6fff7"/>
    <path id="Icon_awesome-hands-helping" data-name="Icon awesome-hands-helping" d="M21.035,8.277H14.483v2.414a3.1,3.1,0,0,1-6.207,0V5.449L5.478,7.13A2.753,2.753,0,0,0,4.138,9.492v2.039L.689,13.523a1.376,1.376,0,0,0-.5,1.884l3.448,5.974a1.38,1.38,0,0,0,1.884.5l4.457-2.573h5.888a2.761,2.761,0,0,0,2.759-2.759h.69a1.378,1.378,0,0,0,1.379-1.379V12.415h.345a1.032,1.032,0,0,0,1.035-1.035V9.311A1.032,1.032,0,0,0,21.035,8.277ZM27.4,6.665,23.953.69a1.38,1.38,0,0,0-1.884-.5L17.612,2.759H13.207a2.779,2.779,0,0,0-1.461.418l-1.444.9a1.37,1.37,0,0,0-.647,1.168v5.444a1.724,1.724,0,0,0,3.448,0V6.9h7.931a2.415,2.415,0,0,1,2.414,2.414V10.54L26.9,8.548A1.381,1.381,0,0,0,27.4,6.665Z" transform="translate(497.536 1152.708) rotate(90)" fill="#231651"/>
  </g>
</svg>
