<svg xmlns="http://www.w3.org/2000/svg" xmlns:xlink="http://www.w3.org/1999/xlink" width="43" height="43" viewBox="0 0 43 43">
  <defs>
    <clipPath id="clip-path">
      <rect id="Rechteck_217" data-name="Rechteck 217" width="26.606" height="22.782" fill="#231651"/>
    </clipPath>
  </defs>
  <g id="icon_werkzeug" transform="translate(-465 -1145)">
    <circle id="Ellipse_35" data-name="Ellipse 35" cx="21.5" cy="21.5" r="21.5" transform="translate(465 1145)" fill="#d6fff7"/>
    <g id="Gruppe_300" data-name="Gruppe 300" transform="translate(473.197 1155.109)">
      <g id="Gruppe_299" data-name="Gruppe 299" transform="translate(0 0)" clip-path="url(#clip-path)">
        <path id="Pfad_1147" data-name="Pfad 1147" d="M4.945,3.368.214,7.461a.618.618,0,0,0-.063.872l3.291,3.805a.618.618,0,0,0,.872.063L12.777,4.88a.618.618,0,0,0,.063-.872l-1.3-1.5a.616.616,0,0,0-.8-.115c-1.821,1.191-3.8,1.531-5.108.9a.626.626,0,0,0-.686.083" transform="translate(0 -1.699)" fill="#231651"/>
        <path id="Pfad_1148" data-name="Pfad 1148" d="M40.934,2.841a.152.152,0,0,0-.263-.04l-.037.047-1.69,2.064a1.924,1.924,0,0,1-2.707.27l-.144-.118a1.924,1.924,0,0,1-.27-2.707L37.513.293l0,0a.153.153,0,0,0-.1-.25,4.4,4.4,0,0,0-4.843,5.532L20.318,18.54a2.249,2.249,0,0,0,3.268,3.09L35.822,8.686a4.4,4.4,0,0,0,5.113-5.845M22.515,21.15l-1.254-.335-.337-1.253.917-.918,1.254.335.337,1.253Z" transform="translate(-14.613 0)" fill="#231651"/>
        <path id="Pfad_1149" data-name="Pfad 1149" d="M23.469,22.182l3.083-3.261-4.906-5.672a.826.826,0,0,0-1.166-.084L18.353,15a.826.826,0,0,0-.084,1.166Z" transform="translate(-13.399 -9.614)" fill="#231651"/>
        <path id="Pfad_1150" data-name="Pfad 1150" d="M58.311,54.5l-3.083,3.261,4.038,4.668a2.232,2.232,0,0,0,3.377-2.921Z" transform="translate(-40.959 -40.419)" fill="#231651"/>
      </g>
    </g>
  </g>
</svg>
