<svg xmlns="http://www.w3.org/2000/svg" xmlns:xlink="http://www.w3.org/1999/xlink" width="43" height="43" viewBox="0 0 43 43">
  <defs>
    <clipPath id="clip-path">
      <rect id="Rechteck_210" data-name="Rechteck 210" width="16.263" height="22.977" fill="#231651"/>
    </clipPath>
  </defs>
  <g id="icon_büro" transform="translate(-465 -1145)">
    <circle id="Ellipse_35" data-name="Ellipse 35" cx="21.5" cy="21.5" r="21.5" transform="translate(465 1145)" fill="#d6fff7"/>
    <g id="Gruppe_273" data-name="Gruppe 273" transform="translate(478.369 1155.012)">
      <g id="Gruppe_272" data-name="Gruppe 272" clip-path="url(#clip-path)">
        <path id="Pfad_1132" data-name="Pfad 1132" d="M15.685,0H.577A.577.577,0,0,0,0,.577v22.4H6.235V19.3a.681.681,0,0,1,.681-.681h2.4a.681.681,0,0,1,.68.681v3.675h6.27V.577A.577.577,0,0,0,15.685,0M5.3,14.87a.249.249,0,0,1-.249.249H2.811a.249.249,0,0,1-.249-.249V12.635a.249.249,0,0,1,.249-.249H5.046a.249.249,0,0,1,.249.249Zm0-4.1a.249.249,0,0,1-.249.249H2.811a.249.249,0,0,1-.249-.249V8.536a.249.249,0,0,1,.249-.249H5.046a.249.249,0,0,1,.249.249Zm0-4.1a.249.249,0,0,1-.249.249H2.811a.249.249,0,0,1-.249-.249V4.436a.249.249,0,0,1,.249-.249H5.046a.249.249,0,0,1,.249.249Zm4.185,8.2a.249.249,0,0,1-.249.249H7a.249.249,0,0,1-.249-.249V12.635A.249.249,0,0,1,7,12.386H9.231a.249.249,0,0,1,.249.249Zm0-4.1a.249.249,0,0,1-.249.249H7a.249.249,0,0,1-.249-.249V8.536A.249.249,0,0,1,7,8.287H9.231a.249.249,0,0,1,.249.249Zm0-4.1a.249.249,0,0,1-.249.249H7a.249.249,0,0,1-.249-.249V4.436A.249.249,0,0,1,7,4.188H9.231a.249.249,0,0,1,.249.249Zm4.185,8.2a.249.249,0,0,1-.249.249H11.181a.249.249,0,0,1-.249-.249V12.635a.249.249,0,0,1,.249-.249h2.235a.249.249,0,0,1,.249.249Zm0-4.1a.249.249,0,0,1-.249.249H11.181a.249.249,0,0,1-.249-.249V8.536a.249.249,0,0,1,.249-.249h2.235a.249.249,0,0,1,.249.249Zm0-4.1a.249.249,0,0,1-.249.249H11.181a.249.249,0,0,1-.249-.249V4.436a.249.249,0,0,1,.249-.249h2.235a.249.249,0,0,1,.249.249Z" fill="#231651"/>
      </g>
    </g>
  </g>
</svg>
