<svg xmlns="http://www.w3.org/2000/svg" width="43" height="43" viewBox="0 0 43 43">
  <g id="icon" transform="translate(-465 -1312)">
    <circle id="Ellipse_37" data-name="Ellipse 37" cx="21.5" cy="21.5" r="21.5" transform="translate(465 1312)" fill="#d6fff7"/>
    <path id="Differenzmenge_2" data-name="Differenzmenge 2" d="M11.255,22.348a2.034,2.034,0,0,1-2.031-2.032v-.091a1.665,1.665,0,0,0-1.1-1.534,1.675,1.675,0,0,0-1.848.335l-.061.06a2.017,2.017,0,0,1-1.438.6A2.034,2.034,0,0,1,2.746,17.65a2.02,2.02,0,0,1,.6-1.438l.061-.061a1.689,1.689,0,0,0-1.2-2.864H2.031a2.032,2.032,0,0,1,0-4.063h.091a1.665,1.665,0,0,0,1.534-1.1,1.669,1.669,0,0,0-.335-1.848l-.061-.061a2.017,2.017,0,0,1-.6-1.438,2.045,2.045,0,0,1,.6-1.438,2.032,2.032,0,0,1,2.874,0L6.2,3.4a1.676,1.676,0,0,0,1.849.335h.081A1.674,1.674,0,0,0,9.142,2.2V2.031a2.032,2.032,0,0,1,4.063,0v.091a1.688,1.688,0,0,0,2.864,1.2l.061-.061a2.045,2.045,0,0,1,1.438-.6A2.035,2.035,0,0,1,19.6,4.7a2.047,2.047,0,0,1-.6,1.437l-.061.061a1.669,1.669,0,0,0-.335,1.849v.081a1.674,1.674,0,0,0,1.534,1.016h.172a2.032,2.032,0,1,1,0,4.063h-.091a1.69,1.69,0,0,0-1.2,2.864l.06.061a2.045,2.045,0,0,1,.6,1.438,2.017,2.017,0,0,1-.6,1.438,2.044,2.044,0,0,1-1.437.6,2.02,2.02,0,0,1-1.438-.6l-.061-.061a1.689,1.689,0,0,0-2.864,1.2v.172A2.034,2.034,0,0,1,11.255,22.348Zm.07-14.985a3.811,3.811,0,1,0,3.811,3.811A3.815,3.815,0,0,0,11.325,7.363Z" transform="translate(474.962 1322.888)" fill="#231651"/>
  </g>
</svg>
